# xmcd
#
# Track frame offsets: 
#        150
#        3311
#        22603
#        46170
#        64168
#        83381
#        104118
#        120339
#        141134
#        162032
#        186089
#        213450
#
# Disc length: 3072 seconds
#
# Revision: 0
# Processed by: cddbd v1.5.2PL0 Copyright (c) Steve Scherf et al.
# Submitted via: ExactAudioCopy v1.0b3
#
DISCID=8d0bfe0c
DTITLE=2V1G - 第三次心動 TEMPTING HEART
DYEAR=2014
DGENRE=A Cappella
TTITLE0=Prelude
TTITLE1=Be Your Love
TTITLE2=剪愛 (breaking up)
TTITLE3=無情的雨無情的你(ruthless is the rain)
TTITLE4=三個人的晚餐 (dinner for 3)
TTITLE5=不願一個人(Bonus Track: Don't Wanna Be Alone)
TTITLE6=用心良苦 (good intentions)
TTITLE7=哭了 (crying)
TTITLE8=女人花 (feminine as flowers)
TTITLE9=一生守候 (eternal wait)
TTITLE10=秋意濃 (moody autumn)
TTITLE11=一顆心交給誰(to whom I give my heart ) 
EXTD=
EXTT0=
EXTT1=
EXTT2=
EXTT3=
EXTT4=
EXTT5=
EXTT6=
EXTT7=
EXTT8=
EXTT9=
EXTT10=
EXTT11=
PLAYORDER=
